<svg width="24" height="24" viewBox="0 0 24 24" fill="none" xmlns="http://www.w3.org/2000/svg">
<g clip-path="url(#clip0_31_8)">
<path d="M11.9294 5.97644C8.63723 5.97644 5.90942 8.65879 5.90942 12C5.90942 15.3411 8.5902 18.0235 11.9294 18.0235C15.2686 18.0235 17.9494 15.2941 17.9494 12C17.9494 8.70585 15.2216 5.97644 11.9294 5.97644ZM11.9294 15.8588C9.81301 15.8588 8.07286 14.1176 8.07286 12C8.07286 9.88232 9.81301 8.14115 11.9294 8.14115C14.0458 8.14115 15.786 9.88232 15.786 12C15.786 14.1176 14.0458 15.8588 11.9294 15.8588Z" fill="#F43F5E"/>
<path d="M18.1845 7.19999C18.9377 7.19999 19.5484 6.58899 19.5484 5.83529C19.5484 5.08158 18.9377 4.47058 18.1845 4.47058C17.4312 4.47058 16.8206 5.08158 16.8206 5.83529C16.8206 6.58899 17.4312 7.19999 18.1845 7.19999Z" fill="#F43F5E"/>
<path d="M21.7118 2.30588C20.489 1.03529 18.7489 0.376465 16.7736 0.376465H7.08514C2.99343 0.376465 0.265625 3.10588 0.265625 7.19999V16.8471C0.265625 18.8706 0.924061 20.6118 2.24093 21.8823C3.51077 23.1059 5.2039 23.7176 7.13217 23.7176H16.7265C18.7489 23.7176 20.442 23.0588 21.6648 21.8823C22.9346 20.6588 23.5931 18.9176 23.5931 16.8941V7.19999C23.5931 5.22352 22.9346 3.52941 21.7118 2.30588ZM21.5237 16.8941C21.5237 18.3529 21.0064 19.5294 20.1598 20.3294C19.3132 21.1294 18.1375 21.5529 16.7265 21.5529H7.13217C5.72124 21.5529 4.54546 21.1294 3.6989 20.3294C2.85234 19.4823 2.42906 18.3059 2.42906 16.8471V7.19999C2.42906 5.78823 2.85234 4.61176 3.6989 3.7647C4.49843 2.9647 5.72124 2.54117 7.13217 2.54117H16.8206C18.2315 2.54117 19.4073 2.9647 20.2539 3.81176C21.0534 4.65882 21.5237 5.83529 21.5237 7.19999V16.8941Z" fill="#F43F5E"/>
</g>
<defs>
<clipPath id="clip0_31_8">
<rect width="24" height="24" fill="white"/>
</clipPath>
</defs>
</svg>

